<?xml version="1.0" encoding="UTF-8" standalone="no"?>
<!DOCTYPE svg PUBLIC "-//W3C//DTD SVG 1.1//EN"
 "http://www.w3.org/Graphics/SVG/1.1/DTD/svg11.dtd">
<!-- Generated by graphviz version 2.28.0 (20120610.2200)
 -->
<!-- Title: G Pages: 1 -->
<svg width="404pt" height="340pt"
 viewBox="0.00 0.00 404.00 340.00" xmlns="http://www.w3.org/2000/svg" xmlns:xlink="http://www.w3.org/1999/xlink">
<g id="graph1" class="graph" transform="scale(1 1) rotate(0) translate(4 336)">
<title>G</title>
<polygon fill="white" stroke="white" points="-4,5 -4,-336 401,-336 401,5 -4,5"/>
<!-- Node1 -->
<g id="node1" class="node"><title>Node1</title>
<polygon fill="#bfbfbf" stroke="black" points="0.105957,-156 0.105957,-176 83.894,-176 83.894,-156 0.105957,-156"/>
<text text-anchor="middle" x="42" y="-162" font-family="Helvetica,sans-Serif" font-size="10.00">DEFINE_TEST</text>
</g>
<!-- Node2 -->
<g id="node3" class="node"><title>Node2</title>
<a xlink:href="classLRUCache.xhtml#ad59b44b509fcef46b3666695c5e4a1aa" target="_top" xlink:title="Clears all storage and indices.">
<polygon fill="white" stroke="black" points="130.929,-312 130.929,-332 223.071,-332 223.071,-312 130.929,-312"/>
<text text-anchor="middle" x="177" y="-318" font-family="Helvetica,sans-Serif" font-size="10.00">LRUCache::clear</text>
</a>
</g>
<!-- Node1&#45;&gt;Node2 -->
<g id="edge2" class="edge"><title>Node1&#45;&gt;Node2</title>
<path fill="none" stroke="midnightblue" d="M45.9972,-176.144C53.8959,-201.164 77.6411,-266.371 120,-302 122.259,-303.9 124.712,-305.625 127.288,-307.191"/>
<polygon fill="midnightblue" stroke="midnightblue" points="125.923,-310.426 136.412,-311.921 129.145,-304.212 125.923,-310.426"/>
</g>
<!-- Node3 -->
<g id="node5" class="node"><title>Node3</title>
<a xlink:href="lru__cache_8cpp.xhtml#a5cc6945fc2f7ed6a7c8481972f4e172c" target="_top" xlink:title="Dumps the cache for debugging.">
<polygon fill="white" stroke="black" points="156.493,-273 156.493,-293 197.507,-293 197.507,-273 156.493,-273"/>
<text text-anchor="middle" x="177" y="-279" font-family="Helvetica,sans-Serif" font-size="10.00">dump</text>
</a>
</g>
<!-- Node1&#45;&gt;Node3 -->
<g id="edge4" class="edge"><title>Node1&#45;&gt;Node3</title>
<path fill="none" stroke="midnightblue" d="M49.2319,-176.144C61.0174,-194.612 88.2558,-234.023 120,-258 128.049,-264.079 137.809,-269.083 146.912,-272.974"/>
<polygon fill="midnightblue" stroke="midnightblue" points="145.834,-276.312 156.42,-276.758 148.423,-269.808 145.834,-276.312"/>
</g>
<!-- Node5 -->
<g id="node9" class="node"><title>Node5</title>
<a xlink:href="classLRUCache.xhtml#a5896c9481fb649f5570fb8677c33b49c" target="_top" xlink:title="Fetches a copy of cached data.">
<polygon fill="white" stroke="black" points="286.926,-234 286.926,-254 379.074,-254 379.074,-234 286.926,-234"/>
<text text-anchor="middle" x="333" y="-240" font-family="Helvetica,sans-Serif" font-size="10.00">LRUCache::fetch</text>
</a>
</g>
<!-- Node1&#45;&gt;Node5 -->
<g id="edge12" class="edge"><title>Node1&#45;&gt;Node5</title>
<path fill="none" stroke="midnightblue" d="M52.8127,-176.333C66.4403,-189.932 92.5358,-213.353 120,-224 170.42,-243.545 232.435,-247.285 276.333,-246.899"/>
<polygon fill="midnightblue" stroke="midnightblue" points="276.585,-250.396 286.527,-246.733 276.471,-243.397 276.585,-250.396"/>
</g>
<!-- Node6 -->
<g id="node11" class="node"><title>Node6</title>
<a xlink:href="classLRUCache.xhtml#aa095f7527b11c4fb1bfad28bc06c91a6" target="_top" xlink:title="Checks for the existance of a key in the cache.">
<polygon fill="white" stroke="black" points="128.985,-195 128.985,-215 225.015,-215 225.015,-195 128.985,-195"/>
<text text-anchor="middle" x="177" y="-201" font-family="Helvetica,sans-Serif" font-size="10.00">LRUCache::exists</text>
</a>
</g>
<!-- Node1&#45;&gt;Node6 -->
<g id="edge10" class="edge"><title>Node1&#45;&gt;Node6</title>
<path fill="none" stroke="midnightblue" d="M77.2508,-176.043C94.0055,-180.956 114.364,-186.926 132.233,-192.166"/>
<polygon fill="midnightblue" stroke="midnightblue" points="131.284,-195.535 141.865,-194.991 133.254,-188.818 131.284,-195.535"/>
</g>
<!-- Node7 -->
<g id="node14" class="node"><title>Node7</title>
<a xlink:href="classLRUCache.xhtml#a47523c87a56e9bd718566b2659366fd1" target="_top" xlink:title="Inserts a key&#45;data pair into the cache and removes entries if neccessary.">
<polygon fill="white" stroke="black" points="129.54,-156 129.54,-176 224.46,-176 224.46,-156 129.54,-156"/>
<text text-anchor="middle" x="177" y="-162" font-family="Helvetica,sans-Serif" font-size="10.00">LRUCache::insert</text>
</a>
</g>
<!-- Node1&#45;&gt;Node7 -->
<g id="edge14" class="edge"><title>Node1&#45;&gt;Node7</title>
<path fill="none" stroke="midnightblue" d="M83.9896,-166C95.0878,-166 107.303,-166 119.106,-166"/>
<polygon fill="midnightblue" stroke="midnightblue" points="119.334,-169.5 129.334,-166 119.334,-162.5 119.334,-169.5"/>
</g>
<!-- Node8 -->
<g id="node16" class="node"><title>Node8</title>
<a xlink:href="classLRUCache.xhtml#a3b625a8778e0dc1e5e69da3c331b9751" target="_top" xlink:title="Gets the maximum sbstract size of the cache.">
<polygon fill="white" stroke="black" points="120.648,-117 120.648,-137 233.352,-137 233.352,-117 120.648,-117"/>
<text text-anchor="middle" x="177" y="-123" font-family="Helvetica,sans-Serif" font-size="10.00">LRUCache::max_size</text>
</a>
</g>
<!-- Node1&#45;&gt;Node8 -->
<g id="edge16" class="edge"><title>Node1&#45;&gt;Node8</title>
<path fill="none" stroke="midnightblue" d="M77.2508,-155.957C94.0055,-151.044 114.364,-145.074 132.233,-139.834"/>
<polygon fill="midnightblue" stroke="midnightblue" points="133.254,-143.182 141.865,-137.009 131.284,-136.465 133.254,-143.182"/>
</g>
<!-- Node9 -->
<g id="node18" class="node"><title>Node9</title>
<a xlink:href="classLRUCache.xhtml#a34e974cf87c08620131a9b006443e93b" target="_top" xlink:title="Removes a key&#45;data pair from the cache.">
<polygon fill="white" stroke="black" points="125.094,-78 125.094,-98 228.906,-98 228.906,-78 125.094,-78"/>
<text text-anchor="middle" x="177" y="-84" font-family="Helvetica,sans-Serif" font-size="10.00">LRUCache::remove</text>
</a>
</g>
<!-- Node1&#45;&gt;Node9 -->
<g id="edge18" class="edge"><title>Node1&#45;&gt;Node9</title>
<path fill="none" stroke="midnightblue" d="M54.2454,-155.775C68.6113,-143.144 94.6595,-121.657 120,-108 124.209,-105.732 128.728,-103.63 133.306,-101.708"/>
<polygon fill="midnightblue" stroke="midnightblue" points="134.677,-104.93 142.709,-98.0206 132.122,-98.4129 134.677,-104.93"/>
</g>
<!-- Node10 -->
<g id="node20" class="node"><title>Node10</title>
<a xlink:href="classLRUCache.xhtml#a3a521aa7646757957a53850db90ad289" target="_top" xlink:title="Gets the current abstract size of the cache.">
<polygon fill="white" stroke="black" points="132.875,-39 132.875,-59 221.125,-59 221.125,-39 132.875,-39"/>
<text text-anchor="middle" x="177" y="-45" font-family="Helvetica,sans-Serif" font-size="10.00">LRUCache::size</text>
</a>
</g>
<!-- Node1&#45;&gt;Node10 -->
<g id="edge20" class="edge"><title>Node1&#45;&gt;Node10</title>
<path fill="none" stroke="midnightblue" d="M48.394,-155.961C59.3534,-136.468 86.086,-93.2848 120,-69 122.988,-66.8607 126.227,-64.9296 129.59,-63.1902"/>
<polygon fill="midnightblue" stroke="midnightblue" points="131.06,-66.3671 138.695,-59.0224 128.146,-60.0022 131.06,-66.3671"/>
</g>
<!-- Node11 -->
<g id="node22" class="node"><title>Node11</title>
<a xlink:href="classLRUCache.xhtml#a844206e9e2fde04aaf11c638725f2c29" target="_top" xlink:title="Touches a key in the Cache and makes it the most recently used.">
<polygon fill="white" stroke="black" points="129.535,-0 129.535,-20 224.465,-20 224.465,-0 129.535,-0"/>
<text text-anchor="middle" x="177" y="-6" font-family="Helvetica,sans-Serif" font-size="10.00">LRUCache::touch</text>
</a>
</g>
<!-- Node1&#45;&gt;Node11 -->
<g id="edge22" class="edge"><title>Node1&#45;&gt;Node11</title>
<path fill="none" stroke="midnightblue" d="M45.9972,-155.856C53.8959,-130.836 77.6411,-65.6293 120,-30 122.259,-28.0999 124.712,-26.3747 127.288,-24.8091"/>
<polygon fill="midnightblue" stroke="midnightblue" points="129.145,-27.7884 136.412,-20.0785 125.923,-21.574 129.145,-27.7884"/>
</g>
<!-- Node4 -->
<g id="node7" class="node"><title>Node4</title>
<a xlink:href="classLRUCache.xhtml#a3ca261ee9025168c081883b6dacc4131" target="_top" xlink:title="Get a list of keys.">
<polygon fill="white" stroke="black" points="269.971,-273 269.971,-293 396.029,-293 396.029,-273 269.971,-273"/>
<text text-anchor="middle" x="333" y="-279" font-family="Helvetica,sans-Serif" font-size="10.00">LRUCache::get_all_keys</text>
</a>
</g>
<!-- Node3&#45;&gt;Node4 -->
<g id="edge6" class="edge"><title>Node3&#45;&gt;Node4</title>
<path fill="none" stroke="midnightblue" d="M197.818,-283C213.669,-283 236.927,-283 259.644,-283"/>
<polygon fill="midnightblue" stroke="midnightblue" points="259.668,-286.5 269.668,-283 259.667,-279.5 259.668,-286.5"/>
</g>
<!-- Node3&#45;&gt;Node5 -->
<g id="edge8" class="edge"><title>Node3&#45;&gt;Node5</title>
<path fill="none" stroke="midnightblue" d="M197.818,-277.981C219.109,-272.589 253.765,-263.813 282.523,-256.53"/>
<polygon fill="midnightblue" stroke="midnightblue" points="283.582,-259.872 292.417,-254.024 281.864,-253.086 283.582,-259.872"/>
</g>
</g>
</svg>
