<?xml version="1.0" encoding="UTF-8" standalone="no"?>
<!DOCTYPE svg PUBLIC "-//W3C//DTD SVG 1.1//EN"
 "http://www.w3.org/Graphics/SVG/1.1/DTD/svg11.dtd">
<!-- Generated by graphviz version 2.28.0 (20120610.2200)
 -->
<!-- Title: G Pages: 1 -->
<svg width="332pt" height="28pt"
 viewBox="0.00 0.00 332.00 28.00" xmlns="http://www.w3.org/2000/svg" xmlns:xlink="http://www.w3.org/1999/xlink">
<g id="graph1" class="graph" transform="scale(1 1) rotate(0) translate(4 24)">
<title>G</title>
<polygon fill="white" stroke="white" points="-4,5 -4,-24 329,-24 329,5 -4,5"/>
<!-- Node1 -->
<g id="node1" class="node"><title>Node1</title>
<polygon fill="#bfbfbf" stroke="black" points="-0.0292969,-0 -0.0292969,-20 126.029,-20 126.029,-0 -0.0292969,-0"/>
<text text-anchor="middle" x="63" y="-6" font-family="Helvetica,sans-Serif" font-size="10.00">LRUCache::get_all_keys</text>
</g>
<!-- Node2 -->
<g id="node3" class="node"><title>Node2</title>
<a xlink:href="lru__cache_8cpp.xhtml#a5cc6945fc2f7ed6a7c8481972f4e172c" target="_top" xlink:title="Dumps the cache for debugging.">
<polygon fill="white" stroke="black" points="162.493,-0 162.493,-20 203.507,-20 203.507,-0 162.493,-0"/>
<text text-anchor="middle" x="183" y="-6" font-family="Helvetica,sans-Serif" font-size="10.00">dump</text>
</a>
</g>
<!-- Node1&#45;&gt;Node2 -->
<g id="edge2" class="edge"><title>Node1&#45;&gt;Node2</title>
<path fill="none" stroke="midnightblue" d="M136.243,-10C145.84,-10 154.943,-10 162.466,-10"/>
<polygon fill="midnightblue" stroke="midnightblue" points="136.11,-6.5001 126.11,-10 136.11,-13.5001 136.11,-6.5001"/>
</g>
<!-- Node3 -->
<g id="node5" class="node"><title>Node3</title>
<a xlink:href="lru__cache_8cpp.xhtml#a744e96854fa4e01ab945ea9ad43b39ca" target="_top" xlink:title="DEFINE_TEST">
<polygon fill="white" stroke="black" points="240.106,-0 240.106,-20 323.894,-20 323.894,-0 240.106,-0"/>
<text text-anchor="middle" x="282" y="-6" font-family="Helvetica,sans-Serif" font-size="10.00">DEFINE_TEST</text>
</a>
</g>
<!-- Node2&#45;&gt;Node3 -->
<g id="edge4" class="edge"><title>Node2&#45;&gt;Node3</title>
<path fill="none" stroke="midnightblue" d="M213.821,-10C222.017,-10 231.052,-10 239.767,-10"/>
<polygon fill="midnightblue" stroke="midnightblue" points="213.629,-6.5001 203.629,-10 213.629,-13.5001 213.629,-6.5001"/>
</g>
</g>
</svg>
