<?xml version="1.0" encoding="UTF-8" standalone="no"?>
<!DOCTYPE svg PUBLIC "-//W3C//DTD SVG 1.1//EN"
 "http://www.w3.org/Graphics/SVG/1.1/DTD/svg11.dtd">
<!-- Generated by graphviz version 2.28.0 (20120610.2200)
 -->
<!-- Title: G Pages: 1 -->
<svg width="388pt" height="106pt"
 viewBox="0.00 0.00 388.00 106.00" xmlns="http://www.w3.org/2000/svg" xmlns:xlink="http://www.w3.org/1999/xlink">
<g id="graph1" class="graph" transform="scale(1 1) rotate(0) translate(4 102)">
<title>G</title>
<polygon fill="white" stroke="white" points="-4,5 -4,-102 385,-102 385,5 -4,5"/>
<!-- Node1 -->
<g id="node1" class="node"><title>Node1</title>
<polygon fill="#bfbfbf" stroke="black" points="0.105957,-39 0.105957,-59 83.894,-59 83.894,-39 0.105957,-39"/>
<text text-anchor="middle" x="42" y="-45" font-family="Helvetica,sans-Serif" font-size="10.00">DEFINE_TEST</text>
</g>
<!-- Node2 -->
<g id="node3" class="node"><title>Node2</title>
<a xlink:href="unit__test_8h.xhtml#a7f0155f7ecefd56c2380285420e85e05" target="_top" xlink:title="Gets the current CPU time with microsecond accuracy.">
<polygon fill="white" stroke="black" points="142.493,-78 142.493,-98 193.507,-98 193.507,-78 142.493,-78"/>
<text text-anchor="middle" x="168" y="-84" font-family="Helvetica,sans-Serif" font-size="10.00">cputime</text>
</a>
</g>
<!-- Node1&#45;&gt;Node2 -->
<g id="edge2" class="edge"><title>Node1&#45;&gt;Node2</title>
<path fill="none" stroke="midnightblue" d="M74.9331,-59.0435C92.6126,-64.604 114.596,-71.518 132.647,-77.1954"/>
<polygon fill="midnightblue" stroke="midnightblue" points="131.629,-80.5443 142.219,-80.2059 133.73,-73.8668 131.629,-80.5443"/>
</g>
<!-- Node3 -->
<g id="node5" class="node"><title>Node3</title>
<a xlink:href="classLRUCache.xhtml#a47523c87a56e9bd718566b2659366fd1" target="_top" xlink:title="Inserts a key&#45;data pair into the cache and removes entries if neccessary.">
<polygon fill="white" stroke="black" points="120.54,-39 120.54,-59 215.46,-59 215.46,-39 120.54,-39"/>
<text text-anchor="middle" x="168" y="-45" font-family="Helvetica,sans-Serif" font-size="10.00">LRUCache::insert</text>
</a>
</g>
<!-- Node1&#45;&gt;Node3 -->
<g id="edge4" class="edge"><title>Node1&#45;&gt;Node3</title>
<path fill="none" stroke="midnightblue" d="M83.9459,-49C92.4541,-49 101.563,-49 110.516,-49"/>
<polygon fill="midnightblue" stroke="midnightblue" points="110.52,-52.5001 120.52,-49 110.52,-45.5001 110.52,-52.5001"/>
</g>
<!-- Node4 -->
<g id="node7" class="node"><title>Node4</title>
<a xlink:href="unit__test_8h.xhtml#a2fdd86314c7b39ab4274a36655e833f1" target="_top" xlink:title="Prints to stdout the results of timing an event.">
<polygon fill="white" stroke="black" points="129.985,-0 129.985,-20 206.015,-20 206.015,-0 129.985,-0"/>
<text text-anchor="middle" x="168" y="-6" font-family="Helvetica,sans-Serif" font-size="10.00">print_cputime</text>
</a>
</g>
<!-- Node1&#45;&gt;Node4 -->
<g id="edge6" class="edge"><title>Node1&#45;&gt;Node4</title>
<path fill="none" stroke="midnightblue" d="M74.9331,-38.9565C90.2647,-34.1345 108.833,-28.2945 125.267,-23.1258"/>
<polygon fill="midnightblue" stroke="midnightblue" points="126.686,-26.3485 135.175,-20.0094 124.586,-19.671 126.686,-26.3485"/>
</g>
<!-- Node5 -->
<g id="node9" class="node"><title>Node5</title>
<a xlink:href="unit__test_8h.xhtml#abf6a6c3c73f9e087ad15d8ed0ec0ba85" target="_top" xlink:title="Calculates the transactions rate.">
<polygon fill="white" stroke="black" points="252.131,-0 252.131,-20 379.869,-20 379.869,-0 252.131,-0"/>
<text text-anchor="middle" x="316" y="-6" font-family="Helvetica,sans-Serif" font-size="10.00">transactions_per_second</text>
</a>
</g>
<!-- Node4&#45;&gt;Node5 -->
<g id="edge8" class="edge"><title>Node4&#45;&gt;Node5</title>
<path fill="none" stroke="midnightblue" d="M206.22,-10C217.11,-10 229.412,-10 241.725,-10"/>
<polygon fill="midnightblue" stroke="midnightblue" points="242.039,-13.5001 252.039,-10 242.039,-6.5001 242.039,-13.5001"/>
</g>
</g>
</svg>
